{
	"asset":{
		"generator":"Khronos glTF Blender I/O v5.1.19",
		"version":"2.0"
	},
	"scene":0,
	"scenes":[
		{
			"name":"Scene",
			"nodes":[
				0,
				1,
				2,
				3,
				4,
				5
			]
		}
	],
	"nodes":[
		{
			"mesh":0,
			"name":"World",
			"scale":[
				2.049999952316284,
				2.049999952316284,
				2.049999952316284
			],
			"translation":[
				-0.4037742614746094,
				-0.005633115768432617,
				0.007333523593842983
			]
		},
		{
			"mesh":1,
			"name":"Rail",
			"rotation":[
				0,
				0,
				-0.7071068286895752,
				0.7071068286895752
			],
			"scale":[
				0.1309831142425537,
				45.029945373535156,
				0.16376672685146332
			],
			"translation":[
				0,
				0.5,
				0
			]
		},
		{
			"name":"PathEquator"
		},
		{
			"name":"PlanetCenter"
		},
		{
			"mesh":2,
			"name":"RailTies",
			"rotation":[
				0,
				0,
				-0.7071068286895752,
				0.7071068286895752
			],
			"scale":[
				0.1309831142425537,
				45.029945373535156,
				0.16376672685146332
			],
			"translation":[
				0,
				0.5,
				0
			]
		},
		{
			"mesh":3,
			"name":"Train",
			"rotation":[
				0,
				-1,
				0,
				4.42541903566962e-07
			],
			"translation":[
				-0.4037742614746094,
				-0.20563311874866486,
				14.347332954406738
			]
		}
	],
	"animations":[
		{
			"channels":[
				{
					"sampler":0,
					"target":{
						"node":5,
						"path":"translation"
					}
				},
				{
					"sampler":1,
					"target":{
						"node":5,
						"path":"rotation"
					}
				}
			],
			"name":"TrainAction",
			"samplers":[
				{
					"input":24,
					"interpolation":"LINEAR",
					"output":25
				},
				{
					"input":24,
					"interpolation":"LINEAR",
					"output":26
				}
			]
		}
	],
	"materials":[
		{
			"doubleSided":true,
			"name":"PlanetGrass",
			"pbrMetallicRoughness":{
				"baseColorFactor":[
					0.10905642807483673,
					0.40420660376548767,
					0.06252291053533554,
					1
				],
				"metallicFactor":0,
				"roughnessFactor":0.5
			}
		},
		{
			"doubleSided":true,
			"name":"TrackRailMetal",
			"pbrMetallicRoughness":{
				"baseColorFactor":[
					0.16043181717395782,
					0.16043181717395782,
					0.16043181717395782,
					1
				],
				"metallicFactor":0.5,
				"roughnessFactor":0.5
			}
		},
		{
			"doubleSided":true,
			"name":"TrackTieWood",
			"pbrMetallicRoughness":{
				"baseColorFactor":[
					0.23556384444236755,
					0.16586610674858093,
					0.10131624341011047,
					1
				],
				"metallicFactor":0,
				"roughnessFactor":0.5
			}
		},
		{
			"doubleSided":true,
			"name":"TrainBodyMetal",
			"pbrMetallicRoughness":{
				"baseColorFactor":[
					0.021478474140167236,
					0.023128023371100426,
					0.033416327089071274,
					1
				],
				"metallicFactor":0,
				"roughnessFactor":0.5
			}
		},
		{
			"doubleSided":true,
			"name":"TrainBase",
			"pbrMetallicRoughness":{
				"baseColorFactor":[
					0.08215288072824478,
					0.1035064309835434,
					0.13428348302841187,
					1
				],
				"metallicFactor":0,
				"roughnessFactor":0.5
			}
		},
		{
			"doubleSided":true,
			"name":"TrainRedMetal",
			"pbrMetallicRoughness":{
				"baseColorFactor":[
					0.22584107518196106,
					0.02124939300119877,
					0.020662419497966766,
					1
				],
				"metallicFactor":0.5,
				"roughnessFactor":0.5
			}
		}
	],
	"meshes":[
		{
			"name":"Sphere",
			"primitives":[
				{
					"attributes":{
						"POSITION":0,
						"NORMAL":1,
						"TEXCOORD_0":2
					},
					"indices":3,
					"material":0
				}
			]
		},
		{
			"name":"Cube.001",
			"primitives":[
				{
					"attributes":{
						"POSITION":4,
						"NORMAL":5,
						"TEXCOORD_0":6
					},
					"indices":7,
					"material":1
				}
			]
		},
		{
			"name":"Cube.002",
			"primitives":[
				{
					"attributes":{
						"POSITION":8,
						"NORMAL":9,
						"TEXCOORD_0":10
					},
					"indices":11,
					"material":2
				}
			]
		},
		{
			"name":"Plane.001",
			"primitives":[
				{
					"attributes":{
						"POSITION":12,
						"NORMAL":13,
						"TEXCOORD_0":14
					},
					"indices":15,
					"material":3
				},
				{
					"attributes":{
						"POSITION":16,
						"NORMAL":17,
						"TEXCOORD_0":18
					},
					"indices":19,
					"material":4
				},
				{
					"attributes":{
						"POSITION":20,
						"NORMAL":21,
						"TEXCOORD_0":22
					},
					"indices":23,
					"material":5
				}
			]
		}
	],
	"accessors":[
		{
			"bufferView":0,
			"componentType":5126,
			"count":2494,
			"max":[
				6.98973274230957,
				7,
				6.9589643478393555
			],
			"min":[
				-6.98973274230957,
				-7,
				-6.999998569488525
			],
			"type":"VEC3"
		},
		{
			"bufferView":1,
			"componentType":5126,
			"count":2494,
			"type":"VEC3"
		},
		{
			"bufferView":2,
			"componentType":5126,
			"count":2494,
			"type":"VEC2"
		},
		{
			"bufferView":3,
			"componentType":5123,
			"count":3654,
			"type":"SCALAR"
		},
		{
			"bufferView":4,
			"componentType":5126,
			"count":1596,
			"max":[
				9.890437126159668,
				1,
				1
			],
			"min":[
				-1,
				-1,
				-1
			],
			"type":"VEC3"
		},
		{
			"bufferView":5,
			"componentType":5126,
			"count":1596,
			"type":"VEC3"
		},
		{
			"bufferView":6,
			"componentType":5126,
			"count":1596,
			"type":"VEC2"
		},
		{
			"bufferView":7,
			"componentType":5123,
			"count":6240,
			"type":"SCALAR"
		},
		{
			"bufferView":8,
			"componentType":5126,
			"count":24,
			"max":[
				7.891387939453125,
				0.9904805421829224,
				0.5997915267944336
			],
			"min":[
				0.9911565780639648,
				0.9860391020774841,
				-0.621457576751709
			],
			"type":"VEC3"
		},
		{
			"bufferView":9,
			"componentType":5126,
			"count":24,
			"type":"VEC3"
		},
		{
			"bufferView":10,
			"componentType":5126,
			"count":24,
			"type":"VEC2"
		},
		{
			"bufferView":11,
			"componentType":5123,
			"count":36,
			"type":"SCALAR"
		},
		{
			"bufferView":12,
			"componentType":5126,
			"count":23708,
			"max":[
				2.2836687564849854,
				1.6004797220230103,
				-0.09036731719970703
			],
			"min":[
				-2.862656354904175,
				-1.596284031867981,
				-3.5036087036132812
			],
			"type":"VEC3"
		},
		{
			"bufferView":13,
			"componentType":5126,
			"count":23708,
			"type":"VEC3"
		},
		{
			"bufferView":14,
			"componentType":5126,
			"count":23708,
			"type":"VEC2"
		},
		{
			"bufferView":15,
			"componentType":5123,
			"count":36708,
			"type":"SCALAR"
		},
		{
			"bufferView":16,
			"componentType":5126,
			"count":36,
			"max":[
				2.2494547367095947,
				1.3042279481887817,
				-0.4469795227050781
			],
			"min":[
				-2.9840376377105713,
				-1.3035567998886108,
				-0.5318069458007812
			],
			"type":"VEC3"
		},
		{
			"bufferView":17,
			"componentType":5126,
			"count":36,
			"type":"VEC3"
		},
		{
			"bufferView":18,
			"componentType":5126,
			"count":36,
			"type":"VEC2"
		},
		{
			"bufferView":19,
			"componentType":5123,
			"count":78,
			"type":"SCALAR"
		},
		{
			"bufferView":20,
			"componentType":5126,
			"count":284,
			"max":[
				2.7916088104248047,
				1.2954210042953491,
				-0.30616283416748047
			],
			"min":[
				-3.082350492477417,
				-1.3005317449569702,
				-3.6807003021240234
			],
			"type":"VEC3"
		},
		{
			"bufferView":21,
			"componentType":5126,
			"count":284,
			"type":"VEC3"
		},
		{
			"bufferView":22,
			"componentType":5126,
			"count":284,
			"type":"VEC2"
		},
		{
			"bufferView":23,
			"componentType":5123,
			"count":510,
			"type":"SCALAR"
		},
		{
			"bufferView":24,
			"componentType":5126,
			"count":150,
			"max":[
				6.25
			],
			"min":[
				0.041666666666666664
			],
			"type":"SCALAR"
		},
		{
			"bufferView":25,
			"componentType":5126,
			"count":150,
			"type":"VEC3"
		},
		{
			"bufferView":26,
			"componentType":5126,
			"count":150,
			"type":"VEC4"
		}
	],
	"bufferViews":[
		{
			"buffer":0,
			"byteLength":29928,
			"byteOffset":0,
			"target":34962
		},
		{
			"buffer":0,
			"byteLength":29928,
			"byteOffset":29928,
			"target":34962
		},
		{
			"buffer":0,
			"byteLength":19952,
			"byteOffset":59856,
			"target":34962
		},
		{
			"buffer":0,
			"byteLength":7308,
			"byteOffset":79808,
			"target":34963
		},
		{
			"buffer":0,
			"byteLength":19152,
			"byteOffset":87116,
			"target":34962
		},
		{
			"buffer":0,
			"byteLength":19152,
			"byteOffset":106268,
			"target":34962
		},
		{
			"buffer":0,
			"byteLength":12768,
			"byteOffset":125420,
			"target":34962
		},
		{
			"buffer":0,
			"byteLength":12480,
			"byteOffset":138188,
			"target":34963
		},
		{
			"buffer":0,
			"byteLength":288,
			"byteOffset":150668,
			"target":34962
		},
		{
			"buffer":0,
			"byteLength":288,
			"byteOffset":150956,
			"target":34962
		},
		{
			"buffer":0,
			"byteLength":192,
			"byteOffset":151244,
			"target":34962
		},
		{
			"buffer":0,
			"byteLength":72,
			"byteOffset":151436,
			"target":34963
		},
		{
			"buffer":0,
			"byteLength":284496,
			"byteOffset":151508,
			"target":34962
		},
		{
			"buffer":0,
			"byteLength":284496,
			"byteOffset":436004,
			"target":34962
		},
		{
			"buffer":0,
			"byteLength":189664,
			"byteOffset":720500,
			"target":34962
		},
		{
			"buffer":0,
			"byteLength":73416,
			"byteOffset":910164,
			"target":34963
		},
		{
			"buffer":0,
			"byteLength":432,
			"byteOffset":983580,
			"target":34962
		},
		{
			"buffer":0,
			"byteLength":432,
			"byteOffset":984012,
			"target":34962
		},
		{
			"buffer":0,
			"byteLength":288,
			"byteOffset":984444,
			"target":34962
		},
		{
			"buffer":0,
			"byteLength":156,
			"byteOffset":984732,
			"target":34963
		},
		{
			"buffer":0,
			"byteLength":3408,
			"byteOffset":984888,
			"target":34962
		},
		{
			"buffer":0,
			"byteLength":3408,
			"byteOffset":988296,
			"target":34962
		},
		{
			"buffer":0,
			"byteLength":2272,
			"byteOffset":991704,
			"target":34962
		},
		{
			"buffer":0,
			"byteLength":1020,
			"byteOffset":993976,
			"target":34963
		},
		{
			"buffer":0,
			"byteLength":600,
			"byteOffset":994996
		},
		{
			"buffer":0,
			"byteLength":1800,
			"byteOffset":995596
		},
		{
			"buffer":0,
			"byteLength":2400,
			"byteOffset":997396
		}
	],
	"buffers":[
		{
			"byteLength":999796,
			"uri":"train-planet.bin"
		}
	]
}
